<?xml version="1.0" encoding="UTF-8"?>
<svg xmlns="http://www.w3.org/2000/svg" xmlns:xlink="http://www.w3.org/1999/xlink" width="50pt" height="50pt" viewBox="0 0 50 50" version="1.1">
<g id="surface1">
<path style=" stroke:none;fill-rule:nonzero;fill:rgb(14.509804%,76.862745%,58.431373%);fill-opacity:1;" d="M 9.1875 45.074219 C 7.152344 40.445312 12.5 23.125 28.125 28.75 C 35.25 25.25 40.359375 35.300781 40.359375 45.074219 C 40.359375 46.9375 36.105469 48.222656 33.792969 46.277344 C 31.203125 48.128906 19.640625 48.128906 17.050781 45.816406 C 16.21875 48.40625 9.835938 47.390625 9.1875 45.074219 Z M 9.1875 45.074219 "/>
<path style=" stroke:none;fill-rule:nonzero;fill:rgb(78.039216%,61.568627%,41.960784%);fill-opacity:1;" d="M 38.890625 16.507812 C 38.890625 24.023438 32.800781 30.113281 25.292969 30.113281 C 17.785156 30.113281 11.695312 24.023438 11.695312 16.507812 C 11.695312 8.992188 17.785156 2.898438 25.292969 2.898438 C 32.800781 2.898438 38.890625 8.992188 38.890625 16.507812 Z M 38.890625 16.507812 "/>
<path style=" stroke:none;fill-rule:nonzero;fill:rgb(34.901961%,24.705882%,14.901961%);fill-opacity:1;" d="M 9.011719 23.632812 C 7.257812 2.804688 32.878906 -10.988281 42.21875 17.988281 L 34.636719 17.988281 C 33.894531 12.433594 31.210938 8.175781 25.386719 6.230469 C 23.8125 11.96875 13.359375 11.785156 17.0625 22.523438 Z M 9.011719 23.632812 "/>
</g>
</svg>
