<?xml version="1.0" encoding="UTF-8"?>
<svg xmlns="http://www.w3.org/2000/svg" xmlns:xlink="http://www.w3.org/1999/xlink" width="50pt" height="50pt" viewBox="0 0 50 50" version="1.1">
<g id="surface1">
<path style=" stroke:none;fill-rule:nonzero;fill:rgb(8.235294%,30.588235%,40%);fill-opacity:1;" d="M 25.550781 15.605469 L 25.550781 4.683594 L 24.300781 4.683594 L 24.300781 15.605469 Z M 25.550781 15.605469 "/>
<path style=" stroke:none;fill-rule:nonzero;fill:rgb(16.862745%,70.980392%,94.117647%);fill-opacity:1;" d="M 28.726562 17.789062 C 28.726562 19.898438 27.011719 21.609375 24.898438 21.609375 C 22.785156 21.609375 21.070312 19.898438 21.070312 17.789062 C 21.070312 15.679688 22.785156 13.96875 24.898438 13.96875 C 27.011719 13.96875 28.726562 15.679688 28.726562 17.789062 Z M 28.726562 17.789062 "/>
<path style=" stroke:none;fill-rule:nonzero;fill:rgb(16.862745%,70.980392%,94.117647%);fill-opacity:1;" d="M 11.933594 28.164062 C 11.933594 31.417969 9.289062 34.058594 6.027344 34.058594 C 2.769531 34.058594 0.125 31.417969 0.125 28.164062 C 0.125 24.90625 2.769531 22.265625 6.027344 22.265625 C 9.289062 22.265625 11.933594 24.90625 11.933594 28.164062 Z M 11.933594 28.164062 "/>
<path style=" stroke:none;fill-rule:nonzero;fill:rgb(16.862745%,70.980392%,94.117647%);fill-opacity:1;" d="M 49.875 28.144531 C 49.875 31.402344 47.230469 34.042969 43.972656 34.042969 C 40.710938 34.042969 38.066406 31.402344 38.066406 28.144531 C 38.066406 24.890625 40.710938 22.25 43.972656 22.25 C 47.230469 22.25 49.875 24.890625 49.875 28.144531 Z M 49.875 28.144531 "/>
<path style=" stroke:none;fill-rule:nonzero;fill:rgb(87.058824%,19.215686%,19.215686%);fill-opacity:1;" d="M 5.921875 22.972656 C 5.921875 19.519531 8.71875 16.722656 12.171875 16.722656 L 37.746094 16.722656 C 41.199219 16.722656 43.996094 19.519531 43.996094 22.972656 L 43.996094 33.5 C 43.996094 36.953125 41.199219 39.75 37.746094 39.75 L 12.171875 39.75 C 8.71875 39.75 5.921875 36.953125 5.921875 33.5 Z M 5.921875 22.972656 "/>
<path style=" stroke:none;fill-rule:nonzero;fill:rgb(87.058824%,19.215686%,19.215686%);fill-opacity:1;" d="M 27.984375 6.433594 C 27.984375 8.121094 26.613281 9.488281 24.925781 9.488281 C 23.234375 9.488281 21.863281 8.121094 21.863281 6.433594 C 21.863281 4.742188 23.234375 3.375 24.925781 3.375 C 26.613281 3.375 27.984375 4.742188 27.984375 6.433594 Z M 27.984375 6.433594 "/>
<path style=" stroke:none;fill-rule:nonzero;fill:rgb(92.941176%,49.411765%,49.411765%);fill-opacity:1;" d="M 26.335938 5.667969 C 26.335938 6.691406 25.503906 7.523438 24.476562 7.523438 C 23.453125 7.523438 22.621094 6.691406 22.621094 5.667969 C 22.621094 4.644531 23.453125 3.8125 24.476562 3.8125 C 25.503906 3.8125 26.335938 4.644531 26.335938 5.667969 Z M 26.335938 5.667969 "/>
<path style=" stroke:none;fill-rule:nonzero;fill:rgb(96.862745%,96.078431%,96.078431%);fill-opacity:1;" d="M 20.570312 24.230469 C 20.570312 26.101562 19.050781 27.617188 17.179688 27.617188 C 15.308594 27.617188 13.792969 26.101562 13.792969 24.230469 C 13.792969 22.363281 15.308594 20.847656 17.179688 20.847656 C 19.050781 20.847656 20.570312 22.363281 20.570312 24.230469 Z M 20.570312 24.230469 "/>
<path style=" stroke:none;fill-rule:nonzero;fill:rgb(16.862745%,70.980392%,94.117647%);fill-opacity:1;" d="M 19.804688 24.230469 C 19.804688 25.679688 18.628906 26.851562 17.179688 26.851562 C 15.730469 26.851562 14.558594 25.679688 14.558594 24.230469 C 14.558594 22.785156 15.730469 21.609375 17.179688 21.609375 C 18.628906 21.609375 19.804688 22.785156 19.804688 24.230469 Z M 19.804688 24.230469 "/>
<path style=" stroke:none;fill-rule:nonzero;fill:rgb(8.235294%,30.588235%,40%);fill-opacity:1;" d="M 18.164062 24.230469 C 18.164062 24.773438 17.722656 25.214844 17.179688 25.214844 C 16.636719 25.214844 16.195312 24.773438 16.195312 24.230469 C 16.195312 23.6875 16.636719 23.25 17.179688 23.25 C 17.722656 23.25 18.164062 23.6875 18.164062 24.230469 Z M 18.164062 24.230469 "/>
<path style=" stroke:none;fill-rule:nonzero;fill:rgb(100%,100%,100%);fill-opacity:1;" d="M 17.398438 23.195312 C 17.398438 23.707031 16.984375 24.121094 16.46875 24.121094 C 15.957031 24.121094 15.539062 23.707031 15.539062 23.195312 C 15.539062 22.679688 15.957031 22.265625 16.46875 22.265625 C 16.984375 22.265625 17.398438 22.679688 17.398438 23.195312 Z M 17.398438 23.195312 "/>
<path style=" stroke:none;fill-rule:nonzero;fill:rgb(96.862745%,96.078431%,96.078431%);fill-opacity:1;" d="M 36.808594 24.320312 C 36.808594 26.1875 35.292969 27.703125 33.421875 27.703125 C 31.546875 27.703125 30.03125 26.1875 30.03125 24.320312 C 30.03125 22.449219 31.546875 20.933594 33.421875 20.933594 C 35.292969 20.933594 36.808594 22.449219 36.808594 24.320312 Z M 36.808594 24.320312 "/>
<path style=" stroke:none;fill-rule:nonzero;fill:rgb(16.862745%,70.980392%,94.117647%);fill-opacity:1;" d="M 36.042969 24.320312 C 36.042969 25.765625 34.871094 26.941406 33.421875 26.941406 C 31.972656 26.941406 30.796875 25.765625 30.796875 24.320312 C 30.796875 22.871094 31.972656 21.699219 33.421875 21.699219 C 34.871094 21.699219 36.042969 22.871094 36.042969 24.320312 Z M 36.042969 24.320312 "/>
<path style=" stroke:none;fill-rule:nonzero;fill:rgb(8.235294%,30.588235%,40%);fill-opacity:1;" d="M 34.402344 24.320312 C 34.402344 24.863281 33.964844 25.300781 33.421875 25.300781 C 32.875 25.300781 32.4375 24.863281 32.4375 24.320312 C 32.4375 23.777344 32.875 23.335938 33.421875 23.335938 C 33.964844 23.335938 34.402344 23.777344 34.402344 24.320312 Z M 34.402344 24.320312 "/>
<path style=" stroke:none;fill-rule:nonzero;fill:rgb(100%,100%,100%);fill-opacity:1;" d="M 33.640625 23.28125 C 33.640625 23.792969 33.222656 24.210938 32.710938 24.210938 C 32.195312 24.210938 31.78125 23.792969 31.78125 23.28125 C 31.78125 22.769531 32.195312 22.351562 32.710938 22.351562 C 33.222656 22.351562 33.640625 22.769531 33.640625 23.28125 Z M 33.640625 23.28125 "/>
<path style=" stroke:none;fill-rule:nonzero;fill:rgb(71.372549%,73.72549%,76.078431%);fill-opacity:1;" d="M 11.191406 32.972656 C 11.191406 31.917969 12.046875 31.066406 13.097656 31.066406 L 36.6875 31.066406 C 37.738281 31.066406 38.59375 31.917969 38.59375 32.972656 C 38.59375 34.027344 37.738281 34.882812 36.6875 34.882812 L 13.097656 34.882812 C 12.046875 34.882812 11.191406 34.027344 11.191406 32.972656 Z M 11.191406 32.972656 "/>
</g>
</svg>
